<svg width="23" height="22" viewBox="0 0 23 22" fill="none" xmlns="http://www.w3.org/2000/svg">
<path fill-rule="evenodd" clip-rule="evenodd" d="M20.3665 9.924C20.2535 10.552 19.6965 11.013 19.0365 11.001H17.3665V2.001H19.0545C19.6965 1.952 20.2525 2.448 20.3665 3.077V9.924ZM15.3665 11.788L11.7585 19.906C10.9515 19.648 10.3665 18.891 10.3665 18.001V14.001C10.3665 13.448 9.91853 13.001 9.36653 13.001H3.69753C3.65153 12.998 3.59053 12.999 3.53353 12.99C2.98853 12.907 2.61253 12.396 2.69453 11.852L4.07553 2.851C4.14953 2.361 4.60153 2.022 5.08653 2.001H15.3665V11.788ZM22.3575 2.866C22.1355 1.223 20.7305 0 19.0945 0C19.0755 0 19.0555 0 19.0365 0.001H5.09753C3.61053 0.011 2.32053 1.081 2.09853 2.549L0.717531 11.551C0.470531 13.186 1.59853 14.718 3.23053 14.966C3.39053 14.991 3.55353 15.003 3.70653 15.001H8.36653V18.001C8.36653 20.207 10.1605 22.001 12.3665 22.001C12.7625 22.001 13.1195 21.768 13.2805 21.407L17.0155 13.001H19.0185C20.6885 13.006 22.1325 11.798 22.3575 10.135C22.3635 10.091 22.3665 10.046 22.3665 10.001V3.001C22.3665 2.956 22.3635 2.911 22.3575 2.866Z" fill="#313037"/>
</svg>
